<svg id="_50" data-name="50" xmlns="http://www.w3.org/2000/svg" viewBox="0 0 512 512"><defs><style>.cls-4{fill:#ff76c1}.cls-5{fill:#fff}.cls-6{fill:#29a3fb}</style></defs><circle cx="256" cy="256" r="256" style="fill:#7ed0fc"/><path d="M409.05 283.21 273.89 418.36a25.28 25.28 0 0 1-35.78 0L126 306.21l-23-23a92 92 0 1 1 130-130.06l23 23 23-23a92 92 0 0 1 130.05 130.06z" style="fill:#ea1b8c"/><path d="M409.05 283.21 299.56 392.7a25.29 25.29 0 0 1-35.79 0L151.61 280.54l-23-23a92 92 0 0 1-11.56-116 92 92 0 0 1 116 11.57l23 23 23-23a92 92 0 0 1 130 130.1z" style="fill:#f946a0"/><ellipse class="cls-4" cx="373.08" cy="169.49" rx="23.33" ry="38.57" transform="rotate(-53.45 373.04 169.487)"/><ellipse class="cls-4" cx="409.8" cy="225.81" rx="14.74" ry="24.37" transform="rotate(-8.45 409.537 225.7)"/><path class="cls-5" d="M433.88 301.41h-10.57A13.32 13.32 0 0 1 410 288.09v-10.57a5.78 5.78 0 0 0-5.78-5.78 5.78 5.78 0 0 0-5.78 5.78v10.57a13.31 13.31 0 0 1-13.31 13.32h-10.58a5.78 5.78 0 0 0-5.78 5.78 5.78 5.78 0 0 0 5.78 5.78h10.57a13.31 13.31 0 0 1 13.31 13.31v10.57a5.78 5.78 0 0 0 5.78 5.78 5.78 5.78 0 0 0 5.78-5.78v-10.57A13.31 13.31 0 0 1 423.31 313h10.57a5.78 5.78 0 0 0 5.78-5.78 5.78 5.78 0 0 0-5.78-5.81z"/><path class="cls-6" d="M127.54 352.27H117A13.31 13.31 0 0 1 103.66 339v-10.61a5.78 5.78 0 0 0-5.78-5.78 5.78 5.78 0 0 0-5.78 5.78V339a13.31 13.31 0 0 1-13.31 13.31H68.22a5.78 5.78 0 0 0-5.78 5.79 5.78 5.78 0 0 0 5.78 5.78h10.57a13.31 13.31 0 0 1 13.31 13.27v10.57a5.78 5.78 0 0 0 5.78 5.78 5.78 5.78 0 0 0 5.78-5.78v-10.57A13.31 13.31 0 0 1 117 363.84h10.57a5.78 5.78 0 0 0 5.79-5.78 5.79 5.79 0 0 0-5.82-5.79zM389.05 415.05h-8.12a10.24 10.24 0 0 1-10.24-10.24v-8.12a4.44 4.44 0 0 0-4.44-4.45 4.45 4.45 0 0 0-4.45 4.45v8.12a10.24 10.24 0 0 1-10.23 10.24h-8.12a4.44 4.44 0 0 0-4.45 4.44 4.44 4.44 0 0 0 4.45 4.44h8.12a10.24 10.24 0 0 1 10.23 10.24v8.12a4.45 4.45 0 0 0 4.45 4.45 4.44 4.44 0 0 0 4.44-4.45v-8.12a10.24 10.24 0 0 1 10.24-10.24h8.12a4.44 4.44 0 0 0 4.44-4.44 4.44 4.44 0 0 0-4.44-4.44z"/><path class="cls-5" d="M215.15 198.33H207a10.23 10.23 0 0 1-10.23-10.23V180a4.44 4.44 0 0 0-4.44-4.45 4.45 4.45 0 0 0-4.43 4.45v8.12a10.23 10.23 0 0 1-10.23 10.23h-8.13a4.44 4.44 0 0 0-4.44 4.45 4.44 4.44 0 0 0 4.44 4.44h8.13a10.23 10.23 0 0 1 10.23 10.24v8.12a4.44 4.44 0 0 0 4.45 4.44 4.44 4.44 0 0 0 4.44-4.44v-8.12A10.23 10.23 0 0 1 207 207.22h8.13a4.44 4.44 0 0 0 4.44-4.44 4.44 4.44 0 0 0-4.42-4.45z"/><path class="cls-6" d="M342.12 49.75H334a10.23 10.23 0 0 1-10.23-10.24v-8.12a4.44 4.44 0 0 0-4.45-4.39 4.44 4.44 0 0 0-4.45 4.44v8.12a10.23 10.23 0 0 1-10.23 10.24h-8.13a4.44 4.44 0 0 0-4.44 4.44 4.44 4.44 0 0 0 4.44 4.45h8.13a10.23 10.23 0 0 1 10.23 10.23V77a4.45 4.45 0 0 0 4.45 4.45 4.44 4.44 0 0 0 4.44-4.45v-8.13A10.23 10.23 0 0 1 334 58.64h8.13a4.44 4.44 0 0 0 4.44-4.45 4.44 4.44 0 0 0-4.45-4.44z"/><path class="cls-5" d="M160.66 80.27h-8.13A10.23 10.23 0 0 1 142.3 70v-8.09a4.44 4.44 0 0 0-4.45-4.44 4.44 4.44 0 0 0-4.44 4.44V70a10.23 10.23 0 0 1-10.23 10.23h-8.13a4.44 4.44 0 0 0-4.44 4.44 4.44 4.44 0 0 0 4.44 4.45h8.13a10.23 10.23 0 0 1 10.23 10.23v8.12a4.44 4.44 0 0 0 4.44 4.45 4.45 4.45 0 0 0 4.45-4.45v-8.08a10.23 10.23 0 0 1 10.23-10.23h8.13a4.44 4.44 0 0 0 4.44-4.45 4.44 4.44 0 0 0-4.44-4.44z"/></svg>